# xmcd
#
# Track frame offsets:
#	150
#	8098
#	24964
#	43958
#	64443
#	81973
#	98412
#	131032
#	147998
#	157746
#	182531
#	203931
#	227864
#	252118
#	271274
#	295370
#	313743
#
# Disc length: 4595 seconds
#
# Revision: 0
# Processed by: cddbd v1.4PL0 Copyright (c) Steve Scherf et al.
# Submitted via: dBpowerAMP V4.0
#
DISCID=ec11f111
DTITLE=bilal - 1st born second
DYEAR=2002
DGENRE=R&B
TTITLE0=intro
TTITLE1=for you
TTITLE2=fast lane
TTITLE3=reminisce
TTITLE4=all that i am
TTITLE5=sally
TTITLE6=sometimes
TTITLE7=love it
TTITLE8=c mere
TTITLE9=soul sista
TTITLE10=when will you call
TTITLE11=queen of sanity
TTITLE12=love poems
TTITLE13=you are
TTITLE14=home
TTITLE15=slyde
TTITLE16=second child
EXTD=bilal "1st born second
EXTT0=
EXTT1=
EXTT2=
EXTT3=
EXTT4=
EXTT5=
EXTT6=
EXTT7=
EXTT8=
EXTT9=
EXTT10=
EXTT11=
EXTT12=
EXTT13=
EXTT14=
EXTT15=
EXTT16=
PLAYORDER=
